<svg width="34" height="34" viewBox="0 0 34 34" fill="none" xmlns="http://www.w3.org/2000/svg">
<g clip-path="url(#clip0_113_131)">
<path d="M34 7.77474V7.13561C34 5.05912 32.8963 3.4325 31.4872 3.4325H2.51282C1.10371 3.4324 0 5.05903 0 7.13552V7.77465C0 9.17059 0.499235 10.3623 1.2543 10.9941C0.505087 11.4296 0 12.2406 0 13.1678V13.5758C0 14.3719 0.372506 15.0821 0.951838 15.5429C0.663909 16.0539 -0.666835 18.7416 1.06668 22.0697C2.0304 23.9199 1.80675 24.6044 1.35543 25.4376C0.867078 26.3391 0.259218 27.4611 0.733308 28.462C1.08698 29.2086 1.46662 30.2822 1.47046 30.2929C1.52843 30.4575 1.68405 30.5675 1.85851 30.5675H3.91314C4.04728 30.5675 4.173 30.5021 4.25008 30.3922C4.32707 30.2823 4.34572 30.1418 4.3 30.0157C4.1324 29.5537 3.78221 28.2064 4.16907 27.5294C4.66776 26.6567 5.70536 24.8406 4.3534 21.5634C3.48084 19.4481 4.01509 18.9445 4.80427 18.5062C5.70646 18.0049 8.12637 17.7374 10.3231 18.5388L10.4118 18.5712C11.3682 18.9214 13.9086 19.8516 17.0002 19.8516C20.0918 19.8516 22.6323 18.9214 23.5887 18.5712L23.6773 18.5388C25.8741 17.7374 28.2938 18.005 29.1962 18.5062C29.9853 18.9445 30.5196 19.4481 29.647 21.5634C28.295 24.8406 29.3326 26.6567 29.8313 27.5294C30.2165 28.2036 29.8673 29.553 29.7004 30.0157C29.6546 30.1417 29.6733 30.2823 29.7503 30.3922C29.8273 30.5021 29.953 30.5675 30.0872 30.5675H32.1419C32.3163 30.5675 32.4718 30.4574 32.5299 30.2929C32.5337 30.2821 32.913 29.2094 33.2671 28.462C33.7411 27.4611 33.1333 26.3391 32.6449 25.4376C32.1936 24.6044 31.9699 23.9199 32.9337 22.0697C34.6672 18.7416 33.3365 16.0538 33.0485 15.5429C33.6279 15.0821 34.0004 14.3719 34.0004 13.5758V13.1678C34.0004 12.2405 33.4953 11.4296 32.7461 10.9942C33.5008 10.3623 34 9.17068 34 7.77474ZM2.51282 4.25532H31.4872C32.0672 4.25532 32.5899 4.78454 32.8956 5.56878C32.3426 5.62163 31.9969 5.74946 31.685 5.86585C31.2959 6.01114 30.9598 6.13659 30.2085 6.13659C29.4544 6.13659 29.0861 6.00429 28.6961 5.86412C28.2775 5.71371 27.803 5.54318 26.9057 5.54318C26.0084 5.54318 25.5339 5.71371 25.1153 5.86412C24.7254 6.00419 24.3571 6.1365 23.6032 6.1365C22.8492 6.1365 22.481 6.00419 22.0911 5.86412C21.6726 5.71361 21.1981 5.54318 20.3008 5.54318C19.4035 5.54318 18.929 5.71371 18.5105 5.86412C18.1206 6.00419 17.7524 6.1365 16.9985 6.1365C16.2446 6.1365 15.8763 6.00419 15.4865 5.86412C15.0679 5.71361 14.5935 5.54318 13.6962 5.54318C12.7991 5.54318 12.3247 5.71371 11.9062 5.86412C11.5164 6.00419 11.1482 6.1365 10.3944 6.1365C9.64063 6.1365 9.27251 6.00419 8.88272 5.86412C8.46423 5.71361 7.98986 5.54318 7.0927 5.54318C6.19545 5.54318 5.72109 5.71371 5.3025 5.86412C4.91262 6.00419 4.54441 6.1365 3.79053 6.1365C3.0393 6.1365 2.70346 6.01105 2.31449 5.86585C2.00252 5.74937 1.65753 5.62117 1.10453 5.56832C1.41029 4.78436 1.93294 4.25532 2.51282 4.25532ZM0.822915 7.77474V7.13561C0.822915 6.87383 0.845133 6.61909 0.885639 6.37597C1.41166 6.40788 1.70106 6.51522 2.02656 6.63683C2.43162 6.78807 2.89063 6.95951 3.79044 6.95951C4.68769 6.95951 5.16214 6.78898 5.58073 6.63857C5.97061 6.49849 6.33882 6.36619 7.0927 6.36619C7.8464 6.36619 8.21461 6.49849 8.6044 6.63857C9.02289 6.78907 9.49735 6.95951 10.3944 6.95951C11.2917 6.95951 11.7659 6.78898 12.1845 6.63857C12.5743 6.49849 12.9425 6.36619 13.6962 6.36619C14.4501 6.36619 14.8183 6.49849 15.2082 6.63857C15.6268 6.78907 16.1012 6.95951 16.9985 6.95951C17.8957 6.95951 18.3701 6.78898 18.7887 6.63857C19.1786 6.4984 19.5468 6.36609 20.3007 6.36609C21.0545 6.36609 21.4228 6.4984 21.8127 6.63848C22.2313 6.78898 22.7059 6.95942 23.6031 6.95942C24.5004 6.95942 24.9748 6.78889 25.3935 6.63848C25.7834 6.49831 26.1517 6.366 26.9056 6.366C27.6595 6.366 28.0278 6.49831 28.4177 6.63839C28.8364 6.78889 29.3109 6.95932 30.2083 6.95932C31.1083 6.95932 31.5675 6.78788 31.9726 6.63665C32.2982 6.51513 32.5882 6.40797 33.1142 6.37606C33.1547 6.61909 33.1769 6.87365 33.1769 7.13543V7.77456C33.1769 7.83765 33.1752 7.90019 33.1727 7.96237C32.5131 8.00251 32.1079 8.14331 31.7453 8.27032C31.3435 8.41104 30.964 8.54389 30.2083 8.54389C29.4543 8.54389 29.086 8.41158 28.696 8.27151C28.2774 8.121 27.8029 7.95057 26.9055 7.95057C26.0082 7.95057 25.5339 8.1211 25.1152 8.27151C24.7253 8.41168 24.3571 8.54398 23.6031 8.54398C22.8492 8.54398 22.481 8.41168 22.0911 8.2716C21.6726 8.1211 21.1981 7.95066 20.3008 7.95066C19.4035 7.95066 18.9291 8.12119 18.5105 8.2716C18.1206 8.41168 17.7524 8.54398 16.9985 8.54398C16.2447 8.54398 15.8765 8.41168 15.4866 8.2716C15.068 8.1211 14.5936 7.95066 13.6963 7.95066C12.7992 7.95066 12.3247 8.12119 11.9062 8.2716C11.5164 8.41168 11.1482 8.54398 10.3945 8.54398C9.64072 8.54398 9.2726 8.41168 8.88282 8.2716C8.46432 8.1211 7.98995 7.95066 7.09279 7.95066C6.19554 7.95066 5.72109 8.12119 5.3025 8.2716C4.91262 8.41168 4.54441 8.54398 3.79062 8.54398C3.035 8.54398 2.65536 8.41104 2.25351 8.27041C1.89087 8.1435 1.48609 8.0026 0.826846 7.96237C0.824652 7.90028 0.822915 7.83783 0.822915 7.77474ZM32.4069 16.0887C32.7369 16.7444 33.6237 18.9628 32.2034 21.6895C31.1629 23.6872 31.3014 24.6857 31.921 25.8296C32.4294 26.7682 32.7966 27.532 32.523 28.1098C32.2604 28.6642 31.9931 29.3645 31.8529 29.7446H30.6403C30.8144 29.0621 30.9977 27.9127 30.5454 27.1212C30.0784 26.3038 29.209 24.7822 30.4073 21.8773C31.2749 19.7743 31.0396 18.5892 29.5954 17.787C28.4024 17.1242 25.6925 16.9277 23.3948 17.7658L23.3053 17.7986C22.2999 18.1667 19.9454 19.0287 16.9999 19.0287C14.0543 19.0287 11.6998 18.1667 10.6944 17.7986L10.6049 17.7658C8.30732 16.9277 5.59747 17.1241 4.40442 17.787C2.96021 18.5892 2.72494 19.7743 3.59248 21.8773C4.79083 24.7822 3.92146 26.3038 3.45441 27.1212C3.00218 27.9127 3.1855 29.0621 3.3595 29.7446H2.14689C2.00672 29.3645 1.73946 28.6642 1.47686 28.1098C1.20319 27.5321 1.5704 26.7682 2.07887 25.8296C2.69843 24.6856 2.83704 23.6871 1.79642 21.6895C0.375615 18.9618 1.26354 16.7429 1.59289 16.0887H32.4069ZM33.1771 13.1678V13.5758C33.1771 14.5076 32.419 15.2658 31.4872 15.2658H2.51282C1.581 15.2658 0.822915 14.5076 0.822915 13.5758V13.1678C0.822915 12.2359 1.581 11.4778 2.51282 11.4778H31.4872C32.419 11.4778 33.1771 12.2359 33.1771 13.1678ZM2.51282 10.6549C1.80657 10.6549 1.18527 9.87052 0.937483 8.79589C1.38716 8.83932 1.67838 8.94099 1.98194 9.04715C2.41013 9.19701 2.89547 9.36699 3.79098 9.36699C4.68824 9.36699 5.1626 9.19646 5.58119 9.04605C5.97107 8.90588 6.33928 8.77358 7.09316 8.77358C7.84686 8.77358 8.21507 8.90588 8.60485 9.04596C9.02335 9.19646 9.49771 9.3669 10.3949 9.3669C11.292 9.3669 11.7664 9.19637 12.1849 9.04596C12.5747 8.90588 12.9429 8.77358 13.6967 8.77358C14.4506 8.77358 14.8188 8.90588 15.2087 9.04605C15.6272 9.19646 16.1017 9.36699 16.9989 9.36699C17.8961 9.36699 18.3706 9.19646 18.7892 9.04605C19.179 8.90597 19.5472 8.77367 20.3011 8.77367C21.0551 8.77367 21.4234 8.90597 21.8132 9.04614C22.2318 9.19655 22.7062 9.36708 23.6035 9.36708C24.5008 9.36708 24.9753 9.19655 25.3939 9.04614C25.7837 8.90606 26.152 8.77376 26.9058 8.77376C27.6599 8.77376 28.0282 8.90606 28.4182 9.04623C28.8369 9.19665 29.3113 9.36717 30.2086 9.36717C31.1043 9.36717 31.5895 9.19729 32.0176 9.04733C32.3211 8.94108 32.6127 8.8395 33.0626 8.79616C32.8148 9.8707 32.1935 10.655 31.4874 10.655H2.51282V10.6549Z" fill="black"/>
</g>
<defs>
<clipPath id="clip0_113_131">
<rect width="34" height="34" fill="white"/>
</clipPath>
</defs>
</svg>
