<svg width="56" height="25" viewBox="0 0 56 25" fill="none" xmlns="http://www.w3.org/2000/svg">
<path d="M5.4082 13.1224H50.5919L48.3878 10.9183" stroke="black" stroke-width="0.5" stroke-linejoin="round"/>
<path d="M5.4082 17.5306C5.95271 17.5306 35.7575 17.5306 50.5919 17.5306" stroke="black" stroke-width="0.5"/>
<path d="M49.4897 23.0408V24.1429" stroke="black" stroke-width="0.5"/>
<path d="M6.51025 23.0408V24.1429" stroke="black" stroke-width="0.5"/>
<path d="M13.1169 10.9184H28.5511V10.9184C28.5511 5.4406 24.1105 1 18.6327 1H11.4695C9.94786 1 8.71436 2.2335 8.71436 3.7551V3.7551" stroke="black" stroke-width="0.5"/>
<path d="M48.3878 3.7551V3.7551C48.3878 2.2335 47.1543 1 45.6326 1H38.4694C32.9916 1 28.551 5.4406 28.551 10.9184V10.9184H44.3486" stroke="black" stroke-width="0.5"/>
<path d="M8.71432 10.9183L5.4082 13.1224" stroke="black" stroke-width="0.5"/>
<path d="M5.64017 7.61226L5.60177 7.85929L5.70234 7.87493L5.78524 7.81587L5.64017 7.61226ZM1 6.89093L0.892198 6.66536C0.793302 6.71263 0.736728 6.8188 0.752653 6.92725C0.768578 7.0357 0.853288 7.12112 0.961598 7.13796L1 6.89093ZM6.73751 6.64892C6.65487 6.67033 6.55151 6.72428 6.46126 6.77522C6.36203 6.83123 6.24731 6.90211 6.13133 6.97673C5.89899 7.1262 5.65201 7.29686 5.4951 7.40866L5.78524 7.81587C5.93767 7.70726 6.17791 7.5413 6.40185 7.39722C6.51402 7.32506 6.61971 7.25994 6.70705 7.21064C6.75077 7.18596 6.78775 7.16645 6.81729 7.15238C6.8495 7.13704 6.86309 7.13289 6.86291 7.13294L6.73751 6.64892ZM5.67857 7.36523L1.0384 6.64389L0.961598 7.13796L5.60177 7.85929L5.67857 7.36523ZM1.1078 7.11649L8.82208 3.42966L8.60648 2.97854L0.892198 6.66536L1.1078 7.11649Z" fill="black"/>
<path d="M5.4082 7.61224C5.4082 8.14678 5.4082 18.1207 5.4082 23.0408" stroke="black" stroke-width="0.5"/>
<path d="M1 6.82259V19.8808C1.10526 21.0679 2.09474 23.3547 5.21052 23.0048H50.7368M50.7368 23.0048H51.6316C52.614 23.1506 54.6631 22.7299 55 19.8808V6.51019H51.1428L50.5918 7.61223L50.7368 23.0048Z" stroke="black" stroke-width="0.5"/>
<path d="M55.0001 6.51021L50.7861 4.46008" stroke="black" stroke-width="0.5"/>
<rect x="0.35338" y="0.1698" width="6.53527" height="8.1507" rx="1.75" transform="matrix(0.975548 -0.219787 0.437971 0.898989 5.16059 4.45841)" stroke="black" stroke-width="0.5"/>
<rect x="-0.35338" y="0.1698" width="6.53527" height="8.1507" rx="1.75" transform="matrix(-0.975548 -0.219787 -0.437971 0.898989 51.8037 4.30307)" stroke="black" stroke-width="0.5"/>
</svg>
